# xmcd
#
# Track frame offsets:
#	157
#	22509
#	49615
#	67726
#	82018
#	108928
#	124983
#	150000
#	182556
#
# Disc length: 2564 seconds
#
# Revision: 0
# Processed by: cddbd v1.5.2PL0 Copyright (c) Steve Scherf et al.
# Submitted via: EZCDAudioConverter 2.1.7.1
#
DISCID=590a0209
DTITLE=Moon Duo - Shadow Of The Sun
DYEAR=1900
DGENRE=
TTITLE0=Wilding
TTITLE1=Night Beat
TTITLE2=Free The Skull
TTITLE3=Zero
TTITLE4=In A Cloud
TTITLE5=Thieves
TTITLE6=Slow Down Low
TTITLE7=Ice
TTITLE8=Animal
EXTD=
EXTT0=
EXTT1=
EXTT2=
EXTT3=
EXTT4=
EXTT5=
EXTT6=
EXTT7=
EXTT8=
PLAYORDER=
